<?xml version="1.0" encoding="UTF-8" standalone="no"?>
<!-- Created with Inkscape (http://www.inkscape.org/) -->

<svg
   width="272.19092mm"
   height="136.99045mm"
   viewBox="0 0 272.19092 136.99045"
   version="1.1"
   id="svg1"
   inkscape:version="1.4.2 (1:1.4.2+202505120738+ebf0e940d0)"
   sodipodi:docname="Devam_nodo_logo.svg"
   xmlns:inkscape="http://www.inkscape.org/namespaces/inkscape"
   xmlns:sodipodi="http://sodipodi.sourceforge.net/DTD/sodipodi-0.dtd"
   xmlns:xlink="http://www.w3.org/1999/xlink"
   xmlns="http://www.w3.org/2000/svg"
   xmlns:svg="http://www.w3.org/2000/svg">
  <sodipodi:namedview
     id="namedview1"
     pagecolor="#ffffff"
     bordercolor="#000000"
     borderopacity="0.25"
     inkscape:showpageshadow="2"
     inkscape:pageopacity="0.0"
     inkscape:pagecheckerboard="0"
     inkscape:deskcolor="#d1d1d1"
     inkscape:document-units="mm"
     inkscape:zoom="0.74653479"
     inkscape:cx="301.39252"
     inkscape:cy="417.93096"
     inkscape:window-width="1872"
     inkscape:window-height="1043"
     inkscape:window-x="48"
     inkscape:window-y="0"
     inkscape:window-maximized="1"
     inkscape:current-layer="layer1" />
  <defs
     id="defs1">
    <linearGradient
       inkscape:collect="always"
       xlink:href="#linearGradient3839"
       id="linearGradient25"
       gradientUnits="userSpaceOnUse"
       gradientTransform="matrix(1.5392377,0,0,1.5392377,-301.39176,-26.947085)"
       x1="307.18945"
       y1="53.162292"
       x2="307.36664"
       y2="32.606205" />
    <linearGradient
       id="linearGradient3839"
       inkscape:collect="always">
      <stop
         style="stop-color:#136b81;stop-opacity:1;"
         offset="0"
         id="stop3839" />
      <stop
         style="stop-color:#0f8583;stop-opacity:1;"
         offset="1"
         id="stop3840" />
    </linearGradient>
    <linearGradient
       inkscape:collect="always"
       xlink:href="#linearGradient3842"
       id="linearGradient26"
       gradientUnits="userSpaceOnUse"
       gradientTransform="matrix(1.5136298,0,0,1.5136298,-295.33806,-25.462818)"
       x1="285.19354"
       y1="78.190147"
       x2="291.70938"
       y2="65.158455" />
    <linearGradient
       id="linearGradient3842"
       inkscape:collect="always">
      <stop
         style="stop-color:#0f6583;stop-opacity:1;"
         offset="0"
         id="stop3842" />
      <stop
         style="stop-color:#383c83;stop-opacity:1;"
         offset="1"
         id="stop3843" />
    </linearGradient>
    <linearGradient
       inkscape:collect="always"
       xlink:href="#linearGradient2"
       id="linearGradient27"
       gradientUnits="userSpaceOnUse"
       gradientTransform="matrix(0.84550616,0,0,0.84550616,-193.01623,-75.01913)"
       x1="302.98593"
       y1="141.15228"
       x2="305.6629"
       y2="198.17188" />
    <linearGradient
       id="linearGradient2"
       inkscape:collect="always">
      <stop
         style="stop-color:#0b2248;stop-opacity:1;"
         offset="0"
         id="stop2" />
      <stop
         style="stop-color:#383c83;stop-opacity:1;"
         offset="0.23602484"
         id="stop4" />
      <stop
         style="stop-color:#383c83;stop-opacity:1;"
         offset="1"
         id="stop3" />
    </linearGradient>
    <linearGradient
       inkscape:collect="always"
       xlink:href="#linearGradient11"
       id="linearGradient28"
       gradientUnits="userSpaceOnUse"
       gradientTransform="matrix(0.84550616,0,0,0.84550616,-193.01623,-75.01913)"
       x1="269.52374"
       y1="177.82686"
       x2="286.121"
       y2="182.37772" />
    <linearGradient
       id="linearGradient11"
       inkscape:collect="always">
      <stop
         style="stop-color:#0f6583;stop-opacity:1;"
         offset="0"
         id="stop11" />
      <stop
         style="stop-color:#0a3952;stop-opacity:1;"
         offset="1"
         id="stop12" />
    </linearGradient>
    <linearGradient
       inkscape:collect="always"
       xlink:href="#linearGradient4"
       id="linearGradient29"
       gradientUnits="userSpaceOnUse"
       gradientTransform="matrix(0.84550616,0,0,0.84550616,-193.01623,-75.01913)"
       x1="278.89316"
       y1="190.94403"
       x2="308.87527"
       y2="169.52823" />
    <linearGradient
       id="linearGradient4"
       inkscape:collect="always">
      <stop
         style="stop-color:#383c83;stop-opacity:1;"
         offset="0"
         id="stop5" />
      <stop
         style="stop-color:#102753;stop-opacity:1;"
         offset="1"
         id="stop6" />
    </linearGradient>
    <linearGradient
       inkscape:collect="always"
       xlink:href="#linearGradient7"
       id="linearGradient30"
       gradientUnits="userSpaceOnUse"
       gradientTransform="matrix(0.84550616,0,0,0.84550616,-193.01623,-75.01913)"
       x1="293.34882"
       y1="132.05057"
       x2="325.20483"
       y2="141.95537" />
    <linearGradient
       id="linearGradient7"
       inkscape:collect="always">
      <stop
         style="stop-color:#083247;stop-opacity:1;"
         offset="0"
         id="stop7" />
      <stop
         style="stop-color:#107f83;stop-opacity:1;"
         offset="1"
         id="stop8" />
    </linearGradient>
    <linearGradient
       inkscape:collect="always"
       xlink:href="#linearGradient9"
       id="linearGradient31"
       gradientUnits="userSpaceOnUse"
       gradientTransform="matrix(0.84550616,0,0,0.84550616,-193.01623,-75.01913)"
       x1="287.72717"
       y1="125.62582"
       x2="266.84677"
       y2="152.39558" />
    <linearGradient
       id="linearGradient9"
       inkscape:collect="always">
      <stop
         style="stop-color:#0f8483;stop-opacity:1;"
         offset="0"
         id="stop9" />
      <stop
         style="stop-color:#083447;stop-opacity:1;"
         offset="1"
         id="stop10" />
    </linearGradient>
  </defs>
  <g
     inkscape:label="Layer 1"
     inkscape:groupmode="layer"
     id="layer1">
    <path
       d="m 106.62241,107.80186 v -2.10202 h -1.7299 v -0.87016 h 2.77825 v 3.36008 q -0.61324,0.43509 -1.3524,0.66047 -0.73903,0.22018 -1.57777,0.22018 -1.83453,0 -2.87247,-1.06936 -1.03276,-1.07459 -1.03276,-2.98789 0,-1.91855 1.03276,-2.98789 1.03794,-1.07459 2.87247,-1.07459 0.76524,0 1.45205,0.18871 0.69181,0.18871 1.27378,0.55567 v 1.127 q -0.58717,-0.49799 -1.24771,-0.7496 -0.66046,-0.25161 -1.38908,-0.25161 -1.43618,0 -2.15953,0.80201 -0.71829,0.80201 -0.71829,2.39032 0,1.58306 0.71829,2.38507 0.72335,0.80201 2.15953,0.80201 0.56103,0 1.00127,-0.0944 0.44023,-0.0996 0.79151,-0.30402 z m 7.59635,-2.55283 q 0.34088,0.11544 0.66054,0.49275 0.32499,0.37744 0.65006,1.03792 l 1.0747,2.13869 h -1.1376 l -1.00119,-2.00765 q -0.38782,-0.78629 -0.75484,-1.04314 -0.36175,-0.25686 -0.99066,-0.25686 h -1.15319 v 3.30765 h -1.05903 v -7.82618 h 2.39043 q 1.34186,0 2.00232,0.56088 0.66061,0.56089 0.66061,1.69313 0,0.73911 -0.34614,1.22661 -0.34074,0.48751 -0.99601,0.6762 z m -2.65218,-3.28667 v 2.77821 h 1.3314 q 0.7653,0 1.15312,-0.35121 0.39316,-0.35645 0.39316,-1.04314 0,-0.68667 -0.39316,-1.03265 -0.38782,-0.35121 -1.15312,-0.35121 z m 10.47943,-0.15197 q -1.15319,0 -1.8348,0.85967 -0.67614,0.85967 -0.67614,2.34314 0,1.47821 0.67614,2.33789 0.68161,0.85966 1.8348,0.85966 1.15306,0 1.82406,-0.85966 0.67635,-0.85968 0.67635,-2.33789 0,-1.48347 -0.67635,-2.34314 -0.671,-0.85967 -1.82406,-0.85967 z m 0,-0.85967 q 1.64593,0 2.63132,1.10604 0.98553,1.1008 0.98553,2.95644 0,1.85041 -0.98553,2.95645 -0.98539,1.10081 -2.63132,1.10081 -1.65132,0 -2.64199,-1.10081 -0.98538,-1.10081 -0.98538,-2.95645 0,-1.85564 0.98538,-2.95644 0.99067,-1.10604 2.64199,-1.10604 z m 5.47864,0.14153 h 1.06923 l 1.64606,6.61529 1.6408,-6.61529 h 1.18987 l 1.64585,6.61529 1.64079,-6.61529 h 1.07471 l -1.96586,7.82619 h -1.33147 l -1.65119,-6.79354 -1.66694,6.79354 h -1.3314 z m 11.12944,0 h 6.62051 v 0.89111 h -2.77817 v 6.93508 h -1.06402 v -6.93508 h -2.77832 z m 8.54527,0 h 1.05882 v 3.20803 h 3.84761 v -3.20803 h 1.05882 v 7.82619 h -1.05882 v -3.72703 h -3.84761 v 3.72703 h -1.05882 z m 13.29008,0 h 4.94824 v 0.89111 h -3.88949 v 2.31692 h 3.72717 v 0.89113 h -3.72717 v 2.83589 h 3.98393 v 0.89114 h -5.04268 z m 7.68538,0 h 1.42584 l 3.47012,6.54714 v -6.54714 h 1.02749 v 7.82619 h -1.42585 l -3.47005,-6.54718 v 6.54718 h -1.02755 z m 14.26936,6.70965 v -2.10201 h -1.72969 v -0.87016 h 2.77811 v 3.36006 q -0.6131,0.4351 -1.35234,0.66048 -0.73923,0.22019 -1.57783,0.22019 -1.83467,0 -2.87262,-1.06937 -1.03268,-1.07459 -1.03268,-2.98789 0,-1.91856 1.03268,-2.9879 1.03795,-1.07458 2.87262,-1.07458 0.76531,0 1.45198,0.1887 0.69201,0.18872 1.27385,0.55567 v 1.127 q -0.58711,-0.49798 -1.24757,-0.74959 -0.66053,-0.25162 -1.38902,-0.25162 -1.43645,0 -2.15981,0.80202 -0.71815,0.80201 -0.71815,2.39032 0,1.58305 0.71815,2.38506 0.72336,0.80202 2.15981,0.80202 0.56068,0 1.00113,-0.0944 0.44024,-0.0996 0.79138,-0.30403 z m 3.88527,-6.70965 h 1.05882 v 7.82619 h -1.05882 z m 4.06861,0 h 1.42577 l 3.47012,6.54714 v -6.54714 h 1.02755 v 7.82619 h -1.42591 l -3.47012,-6.54718 v 6.54718 h -1.02741 z m 8.93309,0 h 4.94838 v 0.89111 h -3.88956 v 2.31692 h 3.7271 v 0.89113 h -3.7271 v 2.83589 h 3.98386 v 0.89114 h -5.04268 z m 7.68545,0 h 4.94852 v 0.89111 h -3.88949 v 2.31692 h 3.72696 v 0.89113 h -3.72696 v 2.83589 h 3.98393 v 0.89114 h -5.04296 z m 11.39695,4.15682 q 0.34067,0.11545 0.66046,0.49275 0.325,0.37743 0.65007,1.03791 l 1.07442,2.13871 h -1.13745 l -1.00121,-2.00766 q -0.38788,-0.78629 -0.75483,-1.04314 -0.36154,-0.25686 -0.99073,-0.25686 h -1.1532 v 3.30766 h -1.05875 v -7.82619 h 2.39015 q 1.34187,0 2.0024,0.56089 0.66047,0.56087 0.66047,1.69312 0,0.73911 -0.34587,1.22662 -0.34067,0.4875 -0.99593,0.67619 z m -2.65247,-3.28667 v 2.77821 h 1.3314 q 0.76531,0 1.15319,-0.3512 0.3933,-0.35645 0.3933,-1.04315 0,-0.68668 -0.3933,-1.03265 -0.38788,-0.35121 -1.15319,-0.35121 z m 7.30276,-0.87015 h 1.05904 v 7.82619 h -1.05904 z m 4.06875,0 h 1.42585 l 3.47018,6.54714 v -6.54714 h 1.02742 v 7.82619 h -1.42584 l -3.47027,-6.54718 v 6.54718 h -1.02734 z m 14.26936,6.70965 v -2.10201 h -1.72976 v -0.87016 h 2.77812 v 3.36006 q -0.61325,0.4351 -1.35227,0.66048 -0.73924,0.22019 -1.57798,0.22019 -1.83453,0 -2.87241,-1.06937 -1.03275,-1.07459 -1.03275,-2.98789 0,-1.91856 1.03275,-2.9879 1.03788,-1.07458 2.87241,-1.07458 0.76524,0 1.45212,0.1887 0.69202,0.18872 1.27378,0.55567 v 1.127 q -0.58717,-0.49798 -1.24771,-0.74959 -0.66025,-0.25162 -1.38909,-0.25162 -1.43616,0 -2.15959,0.80202 -0.71809,0.80201 -0.71809,2.39032 0,1.58305 0.71809,2.38506 0.72343,0.80202 2.15959,0.80202 0.56096,0 1.00128,-0.0944 0.44038,-0.0996 0.79151,-0.30403 z"
       id="text3844-2"
       style="font-size:5.55222px;font-family:Sans;-inkscape-font-specification:'Sans, Normal';letter-spacing:0.466756px;fill:#363a83;stroke-width:3.38125"
       aria-label="GROWTH ENGINEERING" />
    <path
       id="path2-8"
       style="fill:url(#linearGradient25);fill-opacity:1;stroke-width:1.53924"
       d="m 100.61851,23.345098 v 16.076963 16.077324 l 6.99046,-0.131615 v -6.270946 h -0.004 V 39.4195 29.742176 l 3.56616,0.137099 c 5.50649,0.211366 8.12006,1.564187 9.8605,5.10465 0.91063,1.852336 0.98011,6.16492 0.13455,8.357471 -0.79618,2.064423 -2.77585,4.068674 -4.78621,4.846158 -1.08257,0.418655 -2.14305,0.611611 -4.16137,0.723912 v 6.344427 c 4.91624,-0.177724 6.22149,-0.554431 9.00314,-1.923844 1.01569,-0.500024 2.55047,-1.60145 3.41041,-2.447752 2.97438,-2.927232 4.19722,-5.888989 4.43302,-10.736866 0.18275,-3.757198 -0.16341,-5.784683 -1.416,-8.291299 -1.82249,-3.647133 -5.00006,-6.19852 -9.37131,-7.524619 -2.20256,-0.66819 -2.93354,-0.73035 -10.01771,-0.853335 z m 118.98078,7.340711 c -2.7553,0 -4.74925,0.79965 -6.24608,2.504431 l -0.88624,1.009451 v -1.611242 -1.61161 h -3.34789 -3.34789 v 12.22709 12.227091 h 3.31645 3.31681 l 0.12102,-7.641979 c 0.13091,-8.268447 0.25065,-8.960005 1.80026,-10.389173 1.02476,-0.945104 3.87007,-1.21077 5.00484,-0.467246 1.36037,0.891342 1.5028,1.766751 1.68253,10.347127 l 0.16745,8.005753 3.35776,0.0819 3.35813,0.08189 v -6.836167 c 0,-1.822381 0.0104,-3.303429 0.0442,-4.522229 0.11723,-4.223263 0.51281,-5.295589 1.7074,-6.491042 0.99109,-0.991792 1.23433,-1.091705 2.66126,-1.091705 0.9809,0 1.82521,0.178452 2.2485,0.474922 1.36417,0.955519 1.48987,1.833814 1.48987,10.432677 v 8.015269 h 3.36543 3.36581 l -0.0907,-9.679892 c -0.089,-9.513722 -0.10244,-9.703529 -0.78167,-11.071031 -0.82656,-1.664072 -2.29469,-2.942691 -4.07509,-3.549335 -1.47809,-0.50364 -4.62244,-0.583162 -6.16089,-0.155756 -1.52118,0.422596 -3.73572,1.923716 -4.29957,2.914645 -0.27168,0.477441 -0.55937,0.865596 -0.63946,0.860644 -0.0801,-0.0042 -0.48788,-0.571843 -0.90634,-1.262085 -1.14851,-1.894447 -3.16544,-2.802401 -6.22597,-2.802401 z m -77.11114,0.01939 c -1.65025,0.09628 -3.28191,0.412683 -4.37891,0.918778 -4.36151,2.012182 -6.92319,6.333546 -6.92319,11.678674 0,5.916043 3.33586,10.501127 8.73332,12.002976 v -3.68e-4 c 1.7742,0.493933 5.92247,0.499402 7.75824,0.01061 1.94114,-0.516848 4.18246,-1.745242 5.31378,-2.912451 l 0.8972,-0.925359 -1.70849,-1.690581 -1.70813,-1.690581 -1.12791,0.744748 c -1.53643,1.014291 -4.48102,1.738939 -6.02451,1.482548 -1.29159,-0.214534 -2.49914,-0.783497 -3.41882,-1.527516 l -0.0146,0.02448 c 0,0 -0.22206,-0.171986 -0.53123,-0.520988 -0.40091,-0.412322 -0.71614,-0.860077 -0.91878,-1.319852 -0.75028,-1.381623 -1.36986,-3.554634 -0.63433,-6.565258 0.0752,-0.307634 0.17053,-0.588101 0.28225,-0.843465 0.5075,-1.655588 2.23651,-3.184704 4.05352,-3.52557 0.38344,-0.07194 0.75875,-0.10957 1.12352,-0.114438 2.55335,-0.03403 4.58564,1.534571 5.21103,4.142721 l 0.19195,0.80069 h -4.96242 l -0.16087,4.369035 c 0.84805,-0.0021 1.82985,-0.0021 2.96693,-0.0021 h 8.33517 l -0.15064,-2.984107 c -0.0837,-1.656947 -0.36325,-3.566647 -0.62848,-4.29409 -1.17464,-3.221579 -3.87107,-5.831193 -7.08552,-6.857377 -1.17087,-0.373778 -2.8398,-0.49735 -4.49005,-0.401074 z m 49.83262,0.135641 c -4.52455,0.0109 -6.04863,0.44392 -8.84118,2.512836 l -1.59698,1.183482 1.4884,2.077031 c 0.81858,1.142496 1.5221,2.124369 1.56335,2.18196 0.0413,0.05752 0.46988,-0.176677 0.95241,-0.520266 1.7085,-1.216551 3.46875,-1.803916 5.40481,-1.803916 2.98761,0 4.52259,1.225253 4.52259,3.610392 v 0.983125 h -0.004 l 0.0644,4.553671 0.006,7.08e-4 -0.13601,1.414904 c -0.15763,1.640561 -0.75498,2.433334 -2.40425,3.190683 -1.358,0.623653 -3.77238,0.695308 -4.77157,0.141485 -1.293,-0.716639 -1.84354,-2.460325 -1.17288,-3.713495 0.45612,-0.852019 2.1964,-1.37803 4.34929,-1.433193 v -4.29263 c -4.46547,-0.145631 -6.30563,0.166015 -8.22366,1.382374 -1.59092,1.008942 -2.54492,2.808867 -2.76291,5.212861 -0.32812,3.618549 1.53192,6.820304 4.49078,7.72973 1.81315,0.55731 5.441,0.581882 7.21166,0.04896 0.76812,-0.231168 1.88667,-0.814246 2.48578,-1.29572 l 1.08952,-0.875267 0.1839,1.150208 0.1839,1.150208 h 3.08026 3.08063 l -0.10566,-9.388494 c -0.11907,-10.603821 -0.1999,-11.036605 -2.43277,-12.997068 -2.14811,-1.886042 -3.29879,-2.215382 -7.70522,-2.204628 z m -19.40255,0.13601 -2.80642,8.347234 c -0.14648,0.435628 -0.29084,0.862214 -0.43252,1.277076 l 3.35374,9.907296 c 0.81231,-2.125841 1.87354,-4.916278 2.98594,-7.854758 2.21906,-5.861835 4.12335,-10.886983 4.23157,-11.167188 0.18119,-0.469128 -0.10151,-0.50966 -3.56763,-0.50966 z m -14.8039,3.61e-4 c -2.00144,0 -3.63892,0.04726 -3.63892,0.105297 0,0.08421 8.05078,21.177834 9.04299,23.693351 0.24884,0.630827 0.39334,0.655172 3.91934,0.655172 h 2.50735 l -2.76401,-8.165166 c -0.007,0.0035 -0.0129,7.07e-4 -0.0161,-0.0088 -0.55673,-1.646335 -0.58928,-1.77113 -1.12608,-3.365074 l -0.18573,-0.548417 0.001,-0.0028 c -1.92556,-5.721319 -4.10105,-12.191879 -4.10105,-12.254875 0,-0.06 -1.63747,-0.108954 -3.63891,-0.108954 z" />
    <path
       id="path3-7"
       style="fill:url(#linearGradient26);fill-opacity:1;stroke-width:1.51363"
       d="m 178.76505,62.269017 v 5.29623 c 0,2.91285 -0.0767,5.29586 -0.17073,5.29586 -0.0939,0 -0.73507,-0.49665 -1.42479,-1.10378 -3.37353,-2.96948 -9.27879,-2.64577 -13.0157,0.7133 -3.53902,3.1812 -4.99558,8.06741 -3.85134,12.92066 1.06929,4.53528 3.90629,7.73485 7.85037,8.85397 0.77852,0.22096 2.21345,0.32395 3.54276,0.25483 0.90004,-0.0468 1.75001,-0.18637 2.53258,-0.41131 l -0.17512,-5.62746 c -0.27433,0.0317 -0.58621,0.0529 -0.95425,0.0691 -2.07162,0.0912 -2.95481,-0.22654 -4.4608,-1.6043 -1.24502,-1.139 -1.88292,-2.77341 -1.8902,-4.84396 -0.007,-2.11551 0.61136,-3.54555 2.09933,-4.85201 1.0886,-0.9558 2.41214,-1.441 3.7347,-1.49644 2.20427,-0.0924 4.40661,1.00876 5.51742,3.11281 0.30706,0.58173 0.48411,1.0769 0.5773,1.7169 0.006,0.007 0.01,0.017 0.0103,0.0275 l 0.002,0.0607 c 0.055,0.42003 0.0764,0.9041 0.0764,1.51363 0,0.18493 -0.004,0.36507 -0.0125,0.54073 v 3.7e-4 l 0.34294,11.03411 c 0.13574,0.30098 0.68954,0.30528 2.94499,0.30528 1.64395,0 3.05724,-0.10985 3.14022,-0.24423 0.0829,-0.13432 0.0693,-7.2841 -0.03,-15.8883 l -0.18061,-15.64409 h -3.10256 z m -78.15276,0.28628 v 15.5545 c 0,8.55486 0.0895,15.64365 0.19926,15.7534 l 3.7e-4,7.1e-4 c 0.1097,0.11002 1.66207,0.1632 3.44989,0.11919 l 3.25064,-0.0801 -0.0216,-10.12995 c -0.0119,-5.57134 -0.0906,-10.24124 -0.17476,-10.37747 -0.0844,-0.13636 -0.0492,-0.24596 0.0782,-0.24313 0.12737,0.003 3.57372,4.70469 7.65843,10.44912 l 2.84006,3.99393 v -10.94161 c -0.9136,-1.28799 -1.91957,-2.70643 -2.96693,-4.18257 l -7.01386,-9.88537 -3.64988,-0.0153 z m 25.15177,0 -3.47585,3.6e-4 0.0936,6.81899 0.0103,0.003 0.008,1.28438 0.0307,2.24631 c 0.0569,4.1364 0.0691,6.79805 0.0311,8.31397 -3e-5,6.6e-4 1e-5,0.003 0,0.004 l 0.0753,12.82011 h 3.32266 3.38006 v -15.74498 -15.74535 z m 72.55234,7.35936 c -6.33167,0.92513 -10.67653,5.81859 -10.67653,12.22855 0,3.72066 1.18323,6.47822 3.87034,9.0196 1.64409,1.55491 3.82985,2.72595 5.91337,3.168 1.94811,0.41334 5.88243,0.13029 7.71328,-0.55499 2.39595,-0.89682 4.61243,-2.62058 5.95505,-4.63118 1.64588,-2.46472 2.1155,-4.28441 1.97759,-7.66282 -0.096,-2.35312 -0.24353,-3.03157 -1.0175,-4.68163 -1.64315,-3.50313 -4.79774,-5.90667 -8.60463,-6.72942 v 6.39745 c 0.51489,0.31087 0.99757,0.72817 1.48621,1.26902 2.83185,3.13452 1.78664,8.62634 -1.96625,10.33104 -3.78334,1.71855 -8.14314,-0.87815 -8.64923,-5.15144 -0.37925,-3.20206 1.31975,-5.91861 3.9983,-6.84934 z m -55.73722,0.0303 c -3.87849,0.74766 -7.28914,3.24857 -9.13073,7.13634 -0.85826,1.81204 -0.91659,2.13459 -0.91659,5.0838 0,2.98121 0.0515,3.25953 0.96997,5.21908 1.61427,3.4441 4.60638,5.90108 8.26534,6.78791 7.68711,1.86317 14.80089,-2.6029 16.1073,-10.1124 0.88937,-5.11205 -1.9349,-10.58353 -6.65483,-12.8925 -1.15203,-0.56357 -2.3309,-0.95868 -3.50985,-1.19408 v 6.26912 c 1.33756,0.61463 2.4826,1.71933 3.12852,3.26562 0.54711,1.30989 0.57681,3.93467 0.0585,5.17155 -0.59221,1.41321 -1.90087,2.80761 -3.18044,3.38884 -1.23118,0.55927 -3.57919,0.67881 -4.67761,0.23801 -3.99168,-1.60184 -5.33653,-7.06669 -2.56621,-10.42756 0.60546,-0.73453 1.32706,-1.27935 2.10664,-1.64341 z" />
    <path
       id="path4-2"
       d="m 78.809603,51.991814 c -6.608,-6.076476 -12.32027,-7.671353 -16.4857,-8.783923 -3.75499,-1.003105 -8.38633,-0.136016 -10.196859,0.546139 1.315699,-0.206405 2.211419,-0.240408 2.715209,-0.210282 1.98294,0.119008 3.91845,0.984611 5.43309,2.499549 l 7.14609,7.146085 c 0.21357,0.213573 0.41342,0.435487 0.59984,0.664865 1.51046,2.10255 1.85288,3.181711 2.00292,4.16632 0.80892,7.5133 -3.36874,16.91853 -7.83899,22.95942 -6.47825,8.00336 -13.138448,9.85091 -15.644267,10.27422 l 2.37189,1.36939 c 3.238974,1.86981 7.229907,1.86981 10.468877,0 l 21.51732,-12.42319 c 3.23898,-1.86995 5.23415,-5.3261 5.23415,-9.06617 l 0.0244,-8.50709 c -1.18447,-2.82976 -3.45076,-7.05155 -7.34803,-10.635333 z"
       style="fill:url(#linearGradient27);fill-opacity:1;stroke:none;stroke-width:0.298276;stroke-linecap:butt;stroke-linejoin:miter;stroke-miterlimit:10;stroke-dasharray:none;stroke-opacity:1" />
    <path
       id="path5-0"
       d="m 56.001653,76.982877 4.36109,-4.43091 c -1.68705,1.68699 -3.962,2.53174 -6.17342,2.52961 -0.0578,0.004 -0.10021,0.004 -0.1205,-0.003 v 0 c -0.65054,-0.01 -2.236768,-0.0889 -2.872098,-0.24457 -8.493701,-1.44423 -14.936162,-7.60306 -19.981501,-12.32713 -4.145136,-3.88146 -7.478662,-9.800447 -9.029701,-12.831228 v 21.472288 c 0,3.74007 1.995166,7.19622 5.234148,9.06606 l 4.101288,2.36801 c 14.774798,3.23933 21.113454,-2.80284 24.480694,-5.59918 z"
       style="fill:url(#linearGradient28);fill-opacity:1;stroke:none;stroke-width:0.298276;stroke-linecap:butt;stroke-linejoin:miter;stroke-miterlimit:10;stroke-dasharray:none;stroke-opacity:1" />
    <path
       id="path6-2"
       d="m 70.024193,58.020567 c -0.0692,-0.45368 -0.18076,-0.928539 -0.42684,-1.513159 1.1072,3.049569 0.29828,6.451109 -2.15176,8.900849 l -3.08745,3.2652 -5.01073,4.91024 -3.34576,3.39918 c -3.36724,2.79634 -9.705896,8.83852 -24.480694,5.59918 v 0 0 l 15.020274,8.6718 c 2.506114,-0.42296 9.16602,-2.27074 15.64397,-10.27387 4.47025,-6.04089 8.64761,-15.44612 7.83899,-22.95942 z"
       style="fill:url(#linearGradient29);fill-opacity:1;stroke:none;stroke-width:0.298276;stroke-linecap:butt;stroke-linejoin:miter;stroke-miterlimit:10;stroke-dasharray:none;stroke-opacity:1"
       sodipodi:nodetypes="ccccccsccccc" />
    <path
       id="path7-3"
       d="m 80.923193,37.235807 -11.0207,-6.362822 C 66.903633,30.437506 59.289543,30.282104 51.19106,37.605368 44.878046,43.31437 36.720805,52.526322 38.363404,60.084927 l 0.05335,-0.90257 c 0.09873,-2.06885 0.951803,-4.399278 2.531767,-5.979249 l 7.146091,-7.146093 c 1.200856,-1.201148 2.668375,-1.9716 4.211653,-2.316703 0.02241,-0.0076 0.04684,-0.01521 0.06984,-0.02299 -0.08294,0.01224 -0.162557,0.02328 -0.249061,0.03672 1.810529,-0.682155 6.441869,-1.549237 10.196859,-0.546139 4.16543,1.11257 9.8777,2.707745 16.4857,8.783923 3.89728,3.58379 6.16357,7.805581 7.34803,10.635331 V 46.301915 c 0,-3.740083 -1.99547,-7.196205 -5.23444,-9.066094 z"
       style="fill:url(#linearGradient30);fill-opacity:1;stroke:none;stroke-width:0.298276;stroke-linecap:butt;stroke-linejoin:miter;stroke-miterlimit:10;stroke-dasharray:none;stroke-opacity:1" />
    <path
       id="path8-7"
       d="m 48.916404,73.275637 c -5.93e-4,-7e-4 -0.0017,-0.001 -0.0017,-0.001 -0.107675,-0.0835 -0.213567,-0.16963 -0.317961,-0.25891 -5.92e-4,-5.7e-4 -0.0017,-0.001 -0.0017,-0.001 -0.104691,-0.0895 -0.207597,-0.18189 -0.308712,-0.27707 0,0 0,0 -2.95e-4,0 -0.07576,-0.0576 -0.144075,-0.1151 -0.201341,-0.17243 l -7.121026,-7.12156 c -0.639802,-0.63977 -1.156415,-1.35626 -1.552222,-2.11895 -0.05158,-0.0975 -0.09933,-0.19686 -0.146754,-0.29619 -0.0017,-0.004 -0.0042,-0.008 -0.0059,-0.012 v -2.9e-4 c -0.07694,-0.16138 -0.149443,-0.32423 -0.215655,-0.48918 -0.545249,-1.29422 -0.67172,-1.94207 -0.678882,-2.44108 v 2.9e-4 c -1.642598,-7.558606 6.514642,-16.770558 12.827656,-22.47956 8.098491,-7.323264 15.712571,-7.167862 18.711431,-6.732383 l 0.22968,0.132437 v 0 L 59.406753,24.814 c -3.23898,-1.869896 -7.229616,-1.869896 -10.46859,0 L 28.745185,36.472404 26.55644,37.80122 c -2.723858,1.953417 -4.370041,5.108866 -4.370041,8.502056 v 3.373797 c 1.551039,3.030781 4.884565,8.949764 9.029701,12.831234 5.045339,4.72406 11.4878,10.88289 19.981501,12.32741 0.63533,0.15567 2.221562,0.23501 2.872102,0.24458 v 0 0 c -1.823066,-0.0272 -3.637775,-0.62849 -5.152423,-1.80329 z"
       style="fill:url(#linearGradient31);fill-opacity:1;stroke:none;stroke-width:0.298276;stroke-linecap:butt;stroke-linejoin:miter;stroke-miterlimit:10;stroke-dasharray:none;stroke-opacity:1" />
    <path
       id="path9-5"
       d="m 38.413222,59.243497 -0.0059,0.1029 c 0.0017,-0.0239 0.0042,-0.0471 0.0051,-0.0716 0,-0.0104 8.49e-4,-0.0209 8.49e-4,-0.0313 z"
       style="fill:none;stroke:#231f20;stroke-width:0.298276;stroke-linecap:butt;stroke-linejoin:miter;stroke-miterlimit:10;stroke-dasharray:none;stroke-opacity:1" />
  </g>
</svg>
