<?xml version="1.0" encoding="UTF-8" standalone="no"?>
<!-- Created with Inkscape (http://www.inkscape.org/) -->

<svg
   width="107.38783mm"
   height="116.78877mm"
   viewBox="0 0 107.38783 116.78879"
   version="1.1"
   id="svg1"
   inkscape:version="1.4.2 (1:1.4.2+202505120738+ebf0e940d0)"
   sodipodi:docname="Devam_nodo_favicon.svg"
   xmlns:inkscape="http://www.inkscape.org/namespaces/inkscape"
   xmlns:sodipodi="http://sodipodi.sourceforge.net/DTD/sodipodi-0.dtd"
   xmlns:xlink="http://www.w3.org/1999/xlink"
   xmlns="http://www.w3.org/2000/svg"
   xmlns:svg="http://www.w3.org/2000/svg">
  <sodipodi:namedview
     id="namedview1"
     pagecolor="#ffffff"
     bordercolor="#000000"
     borderopacity="0.25"
     inkscape:showpageshadow="2"
     inkscape:pageopacity="0.0"
     inkscape:pagecheckerboard="0"
     inkscape:deskcolor="#d1d1d1"
     inkscape:document-units="mm"
     inkscape:zoom="0.74653479"
     inkscape:cx="330.86201"
     inkscape:cy="399.17765"
     inkscape:window-width="1872"
     inkscape:window-height="1043"
     inkscape:window-x="48"
     inkscape:window-y="0"
     inkscape:window-maximized="1"
     inkscape:current-layer="layer1">
    <inkscape:page
       x="0"
       y="0"
       width="107.38783"
       height="116.7888"
       id="page1"
       margin="0 42.175423 0 0"
       bleed="0" />
  </sodipodi:namedview>
  <defs
     id="defs1">
    <linearGradient
       inkscape:collect="always"
       xlink:href="#linearGradient2"
       id="linearGradient27"
       gradientUnits="userSpaceOnUse"
       gradientTransform="matrix(1.2444061,0,0,1.2444061,-317.07926,-133.15329)"
       x1="302.98593"
       y1="141.15228"
       x2="305.6629"
       y2="198.17188" />
    <linearGradient
       id="linearGradient2"
       inkscape:collect="always">
      <stop
         style="stop-color:#0b2248;stop-opacity:1;"
         offset="0"
         id="stop2" />
      <stop
         style="stop-color:#383c83;stop-opacity:1;"
         offset="0.23602484"
         id="stop4" />
      <stop
         style="stop-color:#383c83;stop-opacity:1;"
         offset="1"
         id="stop3" />
    </linearGradient>
    <linearGradient
       inkscape:collect="always"
       xlink:href="#linearGradient11"
       id="linearGradient28"
       gradientUnits="userSpaceOnUse"
       gradientTransform="matrix(1.2444061,0,0,1.2444061,-317.07926,-133.15329)"
       x1="269.52374"
       y1="177.82686"
       x2="286.121"
       y2="182.37772" />
    <linearGradient
       id="linearGradient11"
       inkscape:collect="always">
      <stop
         style="stop-color:#0f6583;stop-opacity:1;"
         offset="0"
         id="stop11" />
      <stop
         style="stop-color:#0a3952;stop-opacity:1;"
         offset="1"
         id="stop12" />
    </linearGradient>
    <linearGradient
       inkscape:collect="always"
       xlink:href="#linearGradient4"
       id="linearGradient29"
       gradientUnits="userSpaceOnUse"
       gradientTransform="matrix(1.2444061,0,0,1.2444061,-317.07926,-133.15329)"
       x1="278.89316"
       y1="190.94403"
       x2="308.87527"
       y2="169.52823" />
    <linearGradient
       id="linearGradient4"
       inkscape:collect="always">
      <stop
         style="stop-color:#383c83;stop-opacity:1;"
         offset="0"
         id="stop5" />
      <stop
         style="stop-color:#102753;stop-opacity:1;"
         offset="1"
         id="stop6" />
    </linearGradient>
    <linearGradient
       inkscape:collect="always"
       xlink:href="#linearGradient7"
       id="linearGradient30"
       gradientUnits="userSpaceOnUse"
       gradientTransform="matrix(1.2444061,0,0,1.2444061,-317.07926,-133.15329)"
       x1="293.34882"
       y1="132.05057"
       x2="325.20483"
       y2="141.95537" />
    <linearGradient
       id="linearGradient7"
       inkscape:collect="always">
      <stop
         style="stop-color:#083247;stop-opacity:1;"
         offset="0"
         id="stop7" />
      <stop
         style="stop-color:#107f83;stop-opacity:1;"
         offset="1"
         id="stop8" />
    </linearGradient>
    <linearGradient
       inkscape:collect="always"
       xlink:href="#linearGradient9"
       id="linearGradient31"
       gradientUnits="userSpaceOnUse"
       gradientTransform="matrix(1.2444061,0,0,1.2444061,-317.07926,-133.15329)"
       x1="287.72717"
       y1="125.62582"
       x2="266.84677"
       y2="152.39558" />
    <linearGradient
       id="linearGradient9"
       inkscape:collect="always">
      <stop
         style="stop-color:#0f8483;stop-opacity:1;"
         offset="0"
         id="stop9" />
      <stop
         style="stop-color:#083447;stop-opacity:1;"
         offset="1"
         id="stop10" />
    </linearGradient>
  </defs>
  <g
     inkscape:label="Layer 1"
     inkscape:groupmode="layer"
     id="layer1"
     transform="translate(7.4427208,-4.9618138)">
    <path
       id="path4-2"
       d="M 82.990813,53.77993 C 73.265236,44.836644 64.857984,42.489323 58.727353,40.851855 c -5.52655,-1.476358 -12.342902,-0.200186 -15.007617,0.803801 1.93643,-0.303784 3.25474,-0.353829 3.996213,-0.30949 2.918467,0.175154 5.767128,1.449139 7.996358,3.678807 l 10.517531,10.517524 c 0.31433,0.314334 0.608467,0.640945 0.882838,0.97854 2.223077,3.094509 2.727047,4.682805 2.947874,6.131941 1.190559,11.057987 -4.958072,24.900494 -11.537334,33.791405 -9.534612,11.779257 -19.337013,14.498457 -23.025048,15.121477 l 3.490919,2.01546 c 4.767084,2.75196 10.640893,2.75196 15.407971,0 L 86.065997,95.297007 c 4.767093,-2.752171 7.703561,-7.838892 7.703561,-13.343483 l 0.03591,-12.520635 C 92.06218,65.268081 88.726681,59.0545 82.990725,53.77993 Z"
       style="fill:url(#linearGradient27);fill-opacity:1;stroke:none;stroke-width:0.438999;stroke-linecap:butt;stroke-linejoin:miter;stroke-miterlimit:10;stroke-dasharray:none;stroke-opacity:1" />
    <path
       id="path5-0"
       d="m 49.42234,90.561484 6.418601,-6.521362 c -2.48298,2.482893 -5.831225,3.726186 -9.085967,3.723051 -0.08507,0.0059 -0.147488,0.0059 -0.177351,-0.0044 v 0 C 45.620166,87.74404 43.285574,87.627915 42.350503,87.398802 29.849574,85.273201 20.367635,76.208708 12.941964,69.255877 6.8412018,63.543189 1.9349573,54.831694 -0.34784375,50.371026 v 31.602662 c 0,5.504591 2.93646195,10.591312 7.70355765,13.34332 l 6.0362281,3.48521 C 35.137316,103.56983 44.466476,94.677031 49.42234,90.56141 Z"
       style="fill:url(#linearGradient28);fill-opacity:1;stroke:none;stroke-width:0.438999;stroke-linecap:butt;stroke-linejoin:miter;stroke-miterlimit:10;stroke-dasharray:none;stroke-opacity:1" />
    <path
       id="path6-2"
       d="m 70.06055,62.652978 c -0.101848,-0.667721 -0.266041,-1.366613 -0.628218,-2.227049 1.629564,4.48832 0.439005,9.494666 -3.166935,13.100165 l -4.544073,4.805683 -7.374734,7.226834 -4.92425,5.002873 c -4.955864,4.11562 -14.285024,13.008426 -36.030398,8.240807 v 0 0 l 22.106663,12.763059 c 3.688469,-0.62251 13.49044,-3.34205 23.024611,-15.120967 6.579262,-8.890911 12.727451,-22.733418 11.537334,-33.791405 z"
       style="fill:url(#linearGradient29);fill-opacity:1;stroke:none;stroke-width:0.438999;stroke-linecap:butt;stroke-linejoin:miter;stroke-miterlimit:10;stroke-dasharray:none;stroke-opacity:1"
       sodipodi:nodetypes="ccccccsccccc" />
    <path
       id="path7-3"
       d="M 86.10157,32.062212 69.881433,22.697485 C 65.467746,22.056553 54.261418,21.827834 42.342166,32.606128 33.050746,41.00857 21.045014,54.566613 23.462572,65.691279 l 0.07852,-1.328392 c 0.145309,-3.044909 1.400852,-6.474806 3.726225,-8.800188 L 37.78485,45.045163 c 1.767405,-1.767836 3.927283,-2.901778 6.198661,-3.409697 0.03298,-0.01118 0.06894,-0.02238 0.10279,-0.03384 -0.12207,0.01801 -0.23925,0.03426 -0.366565,0.05404 2.664715,-1.003988 9.481067,-2.280149 15.007617,-0.803801 6.130631,1.637468 14.537883,3.985227 24.26346,12.928075 5.735971,5.27458 9.07147,11.488163 10.814745,15.652955 V 45.405604 c 0,-5.504611 -2.93691,-10.59129 -7.703988,-13.343371 z"
       style="fill:url(#linearGradient30);fill-opacity:1;stroke:none;stroke-width:0.438999;stroke-linecap:butt;stroke-linejoin:miter;stroke-miterlimit:10;stroke-dasharray:none;stroke-opacity:1" />
    <path
       id="path8-7"
       d="m 38.994354,85.105211 c -8.73e-4,-10e-4 -0.0025,-0.0015 -0.0025,-0.0015 -0.158474,-0.122895 -0.314325,-0.24966 -0.467971,-0.381061 -8.71e-4,-8.39e-4 -0.0025,-0.0015 -0.0025,-0.0015 -0.154083,-0.131725 -0.305539,-0.267703 -0.454359,-0.407788 0,0 0,0 -4.34e-4,0 -0.111502,-0.08477 -0.212048,-0.169403 -0.296331,-0.253781 L 27.289611,73.57821 c -0.941653,-0.941606 -1.701998,-1.996128 -2.284542,-3.118646 -0.07591,-0.143499 -0.146192,-0.289736 -0.215991,-0.435929 -0.0025,-0.0059 -0.0062,-0.01177 -0.0087,-0.01766 v -4.27e-4 c -0.11324,-0.237517 -0.219949,-0.477198 -0.317399,-0.71997 -0.802491,-1.904817 -0.988629,-2.858315 -0.99917,-3.592752 v 4.26e-4 C 21.046269,54.568584 33.052,41.010541 42.34342,32.608098 54.262684,21.829804 65.468997,22.058523 69.882684,22.699456 l 0.338041,0.194919 v 0 L 54.433926,13.779942 c -4.767093,-2.752091 -10.640464,-2.752091 -15.407548,0 L 9.3065899,30.938645 6.0852206,32.89438 c -4.0089422,2.875017 -6.43177506,7.51917 -6.43177506,12.513227 v 4.965515 C 1.9362466,54.83379 6.842491,63.545279 12.943254,69.257981 c 7.42567,6.952817 16.907609,16.01731 29.408539,18.143338 0.935071,0.229113 3.269668,0.345885 4.227126,0.35997 v 0 0 c -2.683168,-0.04003 -5.354035,-0.925004 -7.583276,-2.654061 z"
       style="fill:url(#linearGradient31);fill-opacity:1;stroke:none;stroke-width:0.438999;stroke-linecap:butt;stroke-linejoin:miter;stroke-miterlimit:10;stroke-dasharray:none;stroke-opacity:1" />
    <path
       id="path9-5"
       d="m 23.535893,64.452872 -0.0087,0.151447 c 0.0025,-0.03518 0.0062,-0.06932 0.0075,-0.10538 0,-0.01531 0.0012,-0.03076 0.0012,-0.04607 z"
       style="fill:none;stroke:#231f20;stroke-width:0.438999;stroke-linecap:butt;stroke-linejoin:miter;stroke-miterlimit:10;stroke-dasharray:none;stroke-opacity:1" />
  </g>
</svg>
