<?xml version="1.0" encoding="utf-8"?>
<!-- Generator: Adobe Illustrator 24.1.2, SVG Export Plug-In . SVG Version: 6.00 Build 0)  -->
<svg version="1.1" id="Layer_1" xmlns="http://www.w3.org/2000/svg" xmlns:xlink="http://www.w3.org/1999/xlink" x="0px" y="0px"
	 viewBox="0 0 1920 379.5" style="enable-background:new 0 0 1920 379.5;" xml:space="preserve">
<style type="text/css">
	.st0{fill:#FFFFFF;}
	.st1{fill:none;stroke:#2E407A;stroke-width:2.1579;stroke-miterlimit:10;}
	.st2{font-family:'DejaVuSans';}
	.st3{font-size:45.6737px;}
	.st4{letter-spacing:52;}
</style>
<path class="st0" d="M957.3,179.3V114h35.8v17.2l4.7-5.4c8-9.1,18.7-13.4,33.4-13.4c16.4,0,27.1,4.9,33.3,15
	c2.2,3.7,4.4,6.7,4.8,6.7c0.4,0,2-2.1,3.4-4.6c3-5.3,14.8-13.3,23-15.6c8.2-2.3,25-1.9,32.9,0.8c9.5,3.2,17.4,10.1,21.8,19
	c3.6,7.3,3.7,8.3,4.2,59.2l0.5,51.7h-36v-42.9c0-46-0.7-50.7-8-55.8c-2.3-1.6-6.8-2.5-12-2.5c-7.6,0-8.9,0.5-14.2,5.8
	c-6.4,6.4-8.5,12.1-9.1,34.7c-0.2,6.5-0.2,14.4-0.2,24.2v36.5l-17.9-0.4l-17.9-0.4l-0.9-42.8c-1-45.9-1.7-50.5-9-55.3
	c-6.1-4-21.3-2.6-26.7,2.5c-8.3,7.6-8.9,11.3-9.6,55.5l-0.6,40.9h-35.4V179.3z M731.5,241.2c-5.3-13.4-48.3-126.2-48.3-126.7
	c0-0.3,8.8-0.6,19.4-0.6c10.7,0,19.4,0.3,19.4,0.6c0,0.4,14.6,44.1,28.9,86.4c0.4,1.2,7.5-17.9,15.7-42.4l15-44.6h20.1
	c18.5,0,20,0.2,19.1,2.7c-0.6,1.5-10.8,28.4-22.6,59.7c-11.9,31.3-22.6,59.5-23.9,62.6l-2.4,5.7h-19.6
	C733.6,244.7,732.8,244.6,731.5,241.2z M479.6,206c10.8-4.2,21.3-14.9,25.6-25.9c4.5-11.7,4.2-34.8-0.7-44.7
	c-9.3-18.9-23.3-26.2-52.7-27.3l-19.1-0.7v103.5l19.1-0.7C466.3,209.5,472.9,208.6,479.6,206z M395.4,159.1V73.2l40.8,0.7
	c37.9,0.7,41.8,1,53.5,4.6c23.4,7.1,40.3,20.7,50.1,40.2c6.7,13.4,8.5,24.2,7.6,44.3c-1.3,25.9-7.8,41.7-23.7,57.4
	c-4.6,4.5-12.8,10.4-18.2,13.1c-18.2,9-24.6,10-69.3,10.8l-40.8,0.8V159.1z M890.9,216.9c8.8-4,12-8.3,12.8-17.1l0.7-7.6l-6-1
	c-18.1-3-35.8,0-39.3,6.5c-3.6,6.7-0.6,16,6.3,19.9C870.7,220.6,883.6,220.2,890.9,216.9z M847.7,243.7c-15.8-4.9-25.8-22-24-41.3
	c1.2-12.8,6.3-22.5,14.8-27.9c10.3-6.6,20.2-8.2,44.5-7.4l21.2,0.7v-5.3c0-12.7-8.2-19.3-24.2-19.3c-10.3,0-19.8,3.1-28.9,9.6
	c-2.6,1.8-4.9,3.1-5.1,2.8c-0.2-0.3-4-5.6-8.4-11.7l-8-11.1l8.5-6.3c14.9-11.1,23.1-13.4,47.2-13.4c23.6-0.1,29.7,1.7,41.2,11.8
	c11.9,10.5,12.4,12.8,13,69.5l0.6,50.2h-32.9l-2-12.3l-5.8,4.7c-3.2,2.6-9.2,5.7-13.3,6.9C876.7,246.9,857.3,246.7,847.7,243.7z
	 M651.1,162.6c-3.8-15.9-17.5-24.6-33.9-21.5c-10.4,2-20.3,11.2-22.1,20.8l-1,5.1h58L651.1,162.6z M605.4,244
	c-28.9-8-46.7-32.5-46.7-64.2c0-28.6,13.7-51.7,37-62.4c11.7-5.4,34.9-6.8,47.4-2.8c17.2,5.5,31.6,19.4,37.9,36.7
	c1.4,3.9,2.9,14.1,3.4,22.9l0.8,16h-44.5c-43.9,0-44.5,0.1-44.5,3.2c0,10.4,12.8,21.5,27.5,24c8.3,1.4,24-2.5,32.2-7.9l6-4
	l18.3,18.1l-4.8,4.9c-6,6.2-18,12.8-28.4,15.6C637,246.7,614.9,246.7,605.4,244L605.4,244z"/>
<path class="st0" d="M294.6,163.9c-28-25.7-52.2-32.5-69.8-37.2c-15.9-4.2-35.5-0.6-43.2,2.3c5.6-0.9,9.4-1,11.5-0.9
	c8.4,0.5,16.6,4.2,23,10.6l30.2,30.3c0.9,0.9,1.7,1.8,2.5,2.8c6.4,8.9,7.9,13.5,8.5,17.6c3.4,31.8-14.3,71.6-33.2,97.2
	c-27.4,33.9-55.6,41.7-66.2,43.5l10,5.8c13.7,7.9,30.6,7.9,44.3,0l91.1-52.6c13.7-7.9,22.2-22.6,22.2-38.4l0.1-36
	C320.7,196.9,311.1,179,294.6,163.9z"/>
<path class="st1" d="M294.6,163.9c-28-25.7-52.2-32.5-69.8-37.2c-15.9-4.2-35.5-0.6-43.2,2.3c5.6-0.9,9.4-1,11.5-0.9
	c8.4,0.5,16.6,4.2,23,10.6l30.2,30.3c0.9,0.9,1.7,1.8,2.5,2.8c6.4,8.9,7.9,13.5,8.5,17.6c3.4,31.8-14.3,71.6-33.2,97.2
	c-27.4,33.9-55.6,41.7-66.2,43.5l10,5.8c13.7,7.9,30.6,7.9,44.3,0l91.1-52.6c13.7-7.9,22.2-22.6,22.2-38.4l0.1-36
	C320.7,196.9,311.1,179,294.6,163.9z"/>
<path class="st0" d="M198.1,269.7l18.5-18.8c-7.1,7.1-16.8,10.7-26.1,10.7c-0.3,0-0.4,0-0.5,0c-2.7,0-9.5-0.4-12.2-1
	c-35.9-6.1-63.2-32.2-84.6-52.2C75.6,192,61.5,166.9,55,154.1V245c0,15.8,8.4,30.5,22.2,38.4l17.4,10
	C157,307.1,183.8,281.5,198.1,269.7z"/>
<path class="st1" d="M198.1,269.7l18.5-18.8c-7.1,7.1-16.8,10.7-26.1,10.7c-0.3,0-0.4,0-0.5,0c-2.7,0-9.5-0.4-12.2-1
	c-35.9-6.1-63.2-32.2-84.6-52.2C75.6,192,61.5,166.9,55,154.1V245c0,15.8,8.4,30.5,22.2,38.4l17.4,10
	C157,307.1,183.8,281.5,198.1,269.7z"/>
<path class="st0" d="M257.4,189.4c-0.3-1.9-0.8-3.9-1.8-6.4c4.7,12.9,1.3,27.3-9.1,37.7l-13.1,13.8l-21.2,20.8l-14.2,14.4
	c-14.3,11.8-41.1,37.4-103.6,23.7l63.6,36.7c10.6-1.8,38.8-9.6,66.2-43.5C243.2,261,260.9,221.2,257.4,189.4z"/>
<path class="st1" d="M257.4,189.4c-0.3-1.9-0.8-3.9-1.8-6.4c4.7,12.9,1.3,27.3-9.1,37.7l-13.1,13.8l-21.2,20.8l-14.2,14.4
	c-14.3,11.8-41.1,37.4-103.6,23.7l63.6,36.7c10.6-1.8,38.8-9.6,66.2-43.5C243.2,261,260.9,221.2,257.4,189.4z"/>
<path class="st0" d="M303.6,101.4l-46.6-26.9C244.2,72.6,212,72,177.7,103c-26.7,24.2-61.3,63.2-54.3,95.2l0.2-3.8
	c0.4-8.8,4-18.6,10.7-25.3l30.2-30.3c11.6-8.2,9.2-6.5,17.8-9.8c0.1,0,10.7-2.9,0.3-0.1c-0.4,0.1,7.8-2.6,7.5-2.5
	c7.7-2.9,18.7-3.9,34.6,0.4c17.6,4.7,41.8,11.5,69.8,37.2c16.5,15.2,26.1,33,31.1,45v-69.1C325.7,123.9,317.3,109.3,303.6,101.4z"/>
<path class="st1" d="M303.6,101.4l-46.6-26.9C244.2,72.6,212,72,177.7,103c-26.7,24.2-61.3,63.2-54.3,95.2l0.2-3.8
	c0.4-8.8,4-18.6,10.7-25.3l30.2-30.3c11.6-8.2,9.2-6.5,17.8-9.8c0.1,0,10.7-2.9,0.3-0.1c-0.4,0.1,7.8-2.6,7.5-2.5
	c7.7-2.9,18.7-3.9,34.6,0.4c17.6,4.7,41.8,11.5,69.8,37.2c16.5,15.2,26.1,33,31.1,45v-69.1C325.7,123.9,317.3,109.3,303.6,101.4z"/>
<path class="st0" d="M168.1,254L168.1,254c-0.5-0.4-0.9-0.7-1.3-1.1c0,0,0,0,0,0c-0.4-0.4-0.9-0.8-1.3-1.2c-0.3-0.3-0.6-0.5-0.8-0.7
	l-30.1-30.2c-2.7-2.7-5.5-5.7-7.2-9c-0.2-0.4,0.2-0.8,0-1.3c-0.2-7.9,0,0,0,0c-0.3-0.7-0.6-1.4-0.9-2.1c-2.3-5.5-2.8-8.2-2.9-10.3
	l1.2,4.2c-11.2-49.1,26.4-75.2,53.1-99.4c34.3-31,66.5-30.3,79.2-28.5l1,0.6l-45.4-26.2c-13.7-7.9-30.6-7.9-44.3,0L82.7,98.2
	l-9.3,5.6c-11.5,8.3-18.5,21.6-18.5,36v14.3c6.6,12.8,20.7,37.9,38.2,54.3c21.4,20,48.6,46.1,84.6,52.2c2.7,0.7,9.4,1,12.2,1
	C182.2,261.5,174.5,259,168.1,254z"/>
<path class="st1" d="M168.1,254L168.1,254c-0.5-0.4-0.9-0.7-1.3-1.1c0,0,0,0,0,0c-0.4-0.4-0.9-0.8-1.3-1.2c-0.3-0.3-0.6-0.5-0.8-0.7
	l-30.1-30.2c-2.7-2.7-5.5-5.7-7.2-9c-0.2-0.4,0.2-0.8,0-1.3c-0.2-7.9,0,0,0,0c-0.3-0.7-0.6-1.4-0.9-2.1c-2.3-5.5-2.8-8.2-2.9-10.3
	l1.2,4.2c-11.2-49.1,26.4-75.2,53.1-99.4c34.3-31,66.5-30.3,79.2-28.5l1,0.6l-45.4-26.2c-13.7-7.9-30.6-7.9-44.3,0L82.7,98.2
	l-9.3,5.6c-11.5,8.3-18.5,21.6-18.5,36v14.3c6.6,12.8,20.7,37.9,38.2,54.3c21.4,20,48.6,46.1,84.6,52.2c2.7,0.7,9.4,1,12.2,1
	C182.2,261.5,174.5,259,168.1,254z"/>
<path class="st0" d="M123.6,194.6l0,0.4c0-0.1,0-0.2,0-0.3C123.6,194.7,123.6,194.6,123.6,194.6z"/>
<path class="st1" d="M123.6,194.6l0,0.4c0-0.1,0-0.2,0-0.3C123.6,194.7,123.6,194.6,123.6,194.6z"/>
<path class="st0" d="M1229.3,244.1c-0.6-0.6-1.1-38.5-1.1-84.2V76.8l39,0.2l37.5,52.8c20.6,29.1,38.2,53.9,39.2,55.3
	c1.2,1.8,1.5-12.2,0.9-52.9l-0.8-55.3h37.2v168.3h-36.1l-39.7-55.8c-21.8-30.7-40.2-55.8-40.9-55.9c-0.7,0-0.9,0.6-0.4,1.3
	c0.5,0.7,0.9,25.7,0.9,55.5l0.1,54.2l-17.4,0.4C1238.2,245,1229.9,244.7,1229.3,244.1z M1775.3,213.2c20.1-9.1,25.6-38.5,10.5-55.2
	c-7-7.8-13.8-10.8-24.3-10.8c-20.4,0-35,17.2-32.5,38.4C1731.7,208.5,1755,222.3,1775.3,213.2z M1745.6,246.6
	c-11.1-2.4-22.8-8.6-31.6-16.9c-14.4-13.6-20.7-28.3-20.7-48.2c0-36.4,26.2-63.6,63.5-66c29.4-1.9,55.3,12.6,67,37.5
	c4.1,8.8,4.9,12.4,5.4,25c0.7,18.1-1.8,27.8-10.6,41c-7.2,10.7-19,20-31.8,24.8C1777.1,247.3,1756,248.8,1745.6,246.6z
	 M1632.3,210.6c9.5-6.7,13.6-15.5,13.6-29c0-8.6-0.8-12.5-3.6-17.7c-9.5-18-33.9-22.3-49.4-8.6c-8,7-11.3,14.6-11.2,25.9
	c0,11.1,3.4,19.8,10.1,25.9c8,7.4,12.8,9.1,23.8,8.6C1624.1,215.2,1627,214.4,1632.3,210.6z M1589.2,246.2
	c-21.1-6-36.2-23.1-42-47.3c-6.1-25.9,1.7-52.1,20.6-69.1c20-18,51.5-19.7,69.6-3.8c3.7,3.2,7.1,5.9,7.6,5.9
	c0.5,0,0.9-12.8,0.9-28.3V75.2h33.2l1,83.6c0.5,46,0.6,84.2,0.2,84.9c-0.4,0.7-8,1.3-16.8,1.3c-15.8,0-16,0-16-3.6
	c0-2-0.4-5.7-0.9-8.3l-0.9-4.6l-4.5,5.2c-7.2,8.2-18.9,13.1-32.9,13.8C1601,247.9,1593.3,247.3,1589.2,246.2z M1480,213.2
	c6.8-3.1,13.8-10.6,17-18.1c2.8-6.6,2.6-20.6-0.3-27.6c-9.6-23-39.7-27.7-55.4-8.7c-14.8,18-7.6,47.2,13.7,55.7
	C1460.8,216.8,1473.4,216.1,1480,213.2z M1448.2,245.8c-19.6-4.7-35.6-17.9-44.2-36.3c-4.9-10.5-5.2-12-5.2-27.9
	c0-15.8,0.3-17.5,4.9-27.2c16.9-35.7,58.5-49.5,95-31.6c25.2,12.4,40.3,41.6,35.6,68.9C1527.3,231.9,1489.3,255.7,1448.2,245.8z"/>
<text transform="matrix(1 0 0 1.0002 393.5907 318.7635)"><tspan x="0" y="0" class="st0 st2 st3 st4">GROWTH E</tspan><tspan x="672.6" y="0" class="st0 st2 st3">N</tspan></text>
<text transform="matrix(1 0 0 1.0002 1153.1122 318.7635)"><tspan x="0" y="0" class="st0 st2 st3 st4">GINEERIN</tspan><tspan x="638.9" y="0" class="st0 st2 st3">G</tspan></text>
</svg>
